<svg id="visual" viewBox="0 0 960 540" width="960" height="540" xmlns="http://www.w3.org/2000/svg" xmlns:xlink="http://www.w3.org/1999/xlink" version="1.1"><rect x="0" y="0" width="960" height="540" fill="#070017"></rect><path d="M289 0L209 0L209 30L215 30L215 60L249 60L249 90L233 90L233 120L219 120L219 150L213 150L213 180L258 180L258 210L188 210L188 240L203 240L203 270L192 270L192 300L242 300L242 330L192 330L192 360L270 360L270 390L251 390L251 420L256 420L256 450L247 450L247 480L261 480L261 510L232 510L232 540L0 540L0 510L0 510L0 480L0 480L0 450L0 450L0 420L0 420L0 390L0 390L0 360L0 360L0 330L0 330L0 300L0 300L0 270L0 270L0 240L0 240L0 210L0 210L0 180L0 180L0 150L0 150L0 120L0 120L0 90L0 90L0 60L0 60L0 30L0 30L0 0L0 0Z" fill="#72008f"></path><path d="M224 0L169 0L169 30L218 30L218 60L202 60L202 90L162 90L162 120L190 120L190 150L179 150L179 180L119 180L119 210L190 210L190 240L119 240L119 270L219 270L219 300L161 300L161 330L144 330L144 360L199 360L199 390L223 390L223 420L218 420L218 450L179 450L179 480L117 480L117 510L117 510L117 540L0 540L0 510L0 510L0 480L0 480L0 450L0 450L0 420L0 420L0 390L0 390L0 360L0 360L0 330L0 330L0 300L0 300L0 270L0 270L0 240L0 240L0 210L0 210L0 180L0 180L0 150L0 150L0 120L0 120L0 90L0 90L0 60L0 60L0 30L0 30L0 0L0 0Z" fill="#3b76e0"></path><path d="M143 0L172 0L172 30L115 30L115 60L84 60L84 90L147 90L147 120L163 120L163 150L90 150L90 180L172 180L172 210L95 210L95 240L77 240L77 270L121 270L121 300L151 300L151 330L105 330L105 360L130 360L130 390L92 390L92 420L129 420L129 450L158 450L158 480L61 480L61 510L71 510L71 540L0 540L0 510L0 510L0 480L0 480L0 450L0 450L0 420L0 420L0 390L0 390L0 360L0 360L0 330L0 330L0 300L0 300L0 270L0 270L0 240L0 240L0 210L0 210L0 180L0 180L0 150L0 150L0 120L0 120L0 90L0 90L0 60L0 60L0 30L0 30L0 0L0 0Z" fill="#00c1ff"></path><path d="M107 0L96 0L96 30L2 30L2 60L7 60L7 90L108 90L108 120L18 120L18 150L19 150L19 180L49 180L49 210L106 210L106 240L61 240L61 270L48 270L48 300L72 300L72 330L73 330L73 360L69 360L69 390L73 390L73 420L55 420L55 450L87 450L87 480L72 480L72 510L5 510L5 540L0 540L0 510L0 510L0 480L0 480L0 450L0 450L0 420L0 420L0 390L0 390L0 360L0 360L0 330L0 330L0 300L0 300L0 270L0 270L0 240L0 240L0 210L0 210L0 180L0 180L0 150L0 150L0 120L0 120L0 90L0 90L0 60L0 60L0 30L0 30L0 0L0 0Z" fill="#5cfffb"></path></svg>