<svg id="visual" viewBox="0 0 540 1024" width="540" height="1024" xmlns="http://www.w3.org/2000/svg" xmlns:xlink="http://www.w3.org/1999/xlink" version="1.1"><path d="M371 0L383 0L383 45L256 45L256 89L475 89L475 134L302 134L302 178L376 178L376 223L511 223L511 267L322 267L322 312L486 312L486 356L331 356L331 401L374 401L374 445L319 445L319 490L408 490L408 534L295 534L295 579L350 579L350 623L515 623L515 668L349 668L349 712L412 712L412 757L324 757L324 801L509 801L509 846L276 846L276 890L475 890L475 935L426 935L426 979L383 979L383 1024L0 1024L0 979L0 979L0 935L0 935L0 890L0 890L0 846L0 846L0 801L0 801L0 757L0 757L0 712L0 712L0 668L0 668L0 623L0 623L0 579L0 579L0 534L0 534L0 490L0 490L0 445L0 445L0 401L0 401L0 356L0 356L0 312L0 312L0 267L0 267L0 223L0 223L0 178L0 178L0 134L0 134L0 89L0 89L0 45L0 45L0 0L0 0Z" fill="#72008f"></path><path d="M343 0L205 0L205 45L396 45L396 89L329 89L329 134L255 134L255 178L206 178L206 223L248 223L248 267L372 267L372 312L323 312L323 356L456 356L456 401L375 401L375 445L268 445L268 490L262 490L262 534L274 534L274 579L360 579L360 623L436 623L436 668L426 668L426 712L288 712L288 757L376 757L376 801L230 801L230 846L296 846L296 890L397 890L397 935L262 935L262 979L258 979L258 1024L0 1024L0 979L0 979L0 935L0 935L0 890L0 890L0 846L0 846L0 801L0 801L0 757L0 757L0 712L0 712L0 668L0 668L0 623L0 623L0 579L0 579L0 534L0 534L0 490L0 490L0 445L0 445L0 401L0 401L0 356L0 356L0 312L0 312L0 267L0 267L0 223L0 223L0 178L0 178L0 134L0 134L0 89L0 89L0 45L0 45L0 0L0 0Z" fill="#5e4bbd"></path><path d="M400 0L220 0L220 45L249 45L249 89L179 89L179 134L295 134L295 178L347 178L347 223L271 223L271 267L379 267L379 312L303 312L303 356L392 356L392 401L307 401L307 445L175 445L175 490L301 490L301 534L338 534L338 579L308 579L308 623L185 623L185 668L303 668L303 712L378 712L378 757L252 757L252 801L215 801L215 846L240 846L240 890L380 890L380 935L362 935L362 979L279 979L279 1024L0 1024L0 979L0 979L0 935L0 935L0 890L0 890L0 846L0 846L0 801L0 801L0 757L0 757L0 712L0 712L0 668L0 668L0 623L0 623L0 579L0 579L0 534L0 534L0 490L0 490L0 445L0 445L0 401L0 401L0 356L0 356L0 312L0 312L0 267L0 267L0 223L0 223L0 178L0 178L0 134L0 134L0 89L0 89L0 45L0 45L0 0L0 0Z" fill="#3b76e0"></path><path d="M255 0L216 0L216 45L326 45L326 89L252 89L252 134L162 134L162 178L148 178L148 223L141 223L141 267L325 267L325 312L189 312L189 356L150 356L150 401L236 401L236 445L298 445L298 490L137 490L137 534L162 534L162 579L315 579L315 623L259 623L259 668L240 668L240 712L248 712L248 757L274 757L274 801L270 801L270 846L167 846L167 890L250 890L250 935L128 935L128 979L174 979L174 1024L0 1024L0 979L0 979L0 935L0 935L0 890L0 890L0 846L0 846L0 801L0 801L0 757L0 757L0 712L0 712L0 668L0 668L0 623L0 623L0 579L0 579L0 534L0 534L0 490L0 490L0 445L0 445L0 401L0 401L0 356L0 356L0 312L0 312L0 267L0 267L0 223L0 223L0 178L0 178L0 134L0 134L0 89L0 89L0 45L0 45L0 0L0 0Z" fill="#009df8"></path><path d="M197 0L193 0L193 45L120 45L120 89L262 89L262 134L202 134L202 178L144 178L144 223L174 223L174 267L211 267L211 312L147 312L147 356L136 356L136 401L169 401L169 445L113 445L113 490L90 490L90 534L224 534L224 579L219 579L219 623L237 623L237 668L241 668L241 712L106 712L106 757L178 757L178 801L149 801L149 846L194 846L194 890L97 890L97 935L216 935L216 979L259 979L259 1024L0 1024L0 979L0 979L0 935L0 935L0 890L0 890L0 846L0 846L0 801L0 801L0 757L0 757L0 712L0 712L0 668L0 668L0 623L0 623L0 579L0 579L0 534L0 534L0 490L0 490L0 445L0 445L0 401L0 401L0 356L0 356L0 312L0 312L0 267L0 267L0 223L0 223L0 178L0 178L0 134L0 134L0 89L0 89L0 45L0 45L0 0L0 0Z" fill="#00c1ff"></path><path d="M46 0L166 0L166 45L58 45L58 89L63 89L63 134L51 134L51 178L162 178L162 223L155 223L155 267L147 267L147 312L108 312L108 356L65 356L65 401L52 401L52 445L60 445L60 490L192 490L192 534L168 534L168 579L50 579L50 623L171 623L171 668L197 668L197 712L184 712L184 757L88 757L88 801L196 801L196 846L128 846L128 890L139 890L139 935L175 935L175 979L165 979L165 1024L0 1024L0 979L0 979L0 935L0 935L0 890L0 890L0 846L0 846L0 801L0 801L0 757L0 757L0 712L0 712L0 668L0 668L0 623L0 623L0 579L0 579L0 534L0 534L0 490L0 490L0 445L0 445L0 401L0 401L0 356L0 356L0 312L0 312L0 267L0 267L0 223L0 223L0 178L0 178L0 134L0 134L0 89L0 89L0 45L0 45L0 0L0 0Z" fill="#00e2ff"></path><path d="M109 0L25 0L25 45L90 45L90 89L130 89L130 134L129 134L129 178L20 178L20 223L70 223L70 267L126 267L126 312L103 312L103 356L119 356L119 401L90 401L90 445L59 445L59 490L16 490L16 534L109 534L109 579L131 579L131 623L36 623L36 668L39 668L39 712L127 712L127 757L84 757L84 801L61 801L61 846L35 846L35 890L101 890L101 935L91 935L91 979L15 979L15 1024L0 1024L0 979L0 979L0 935L0 935L0 890L0 890L0 846L0 846L0 801L0 801L0 757L0 757L0 712L0 712L0 668L0 668L0 623L0 623L0 579L0 579L0 534L0 534L0 490L0 490L0 445L0 445L0 401L0 401L0 356L0 356L0 312L0 312L0 267L0 267L0 223L0 223L0 178L0 178L0 134L0 134L0 89L0 89L0 45L0 45L0 0L0 0Z" fill="#5cfffb"></path></svg>