<svg id="visual" viewBox="0 0 1024 100" width="1024" height="100" xmlns="http://www.w3.org/2000/svg" xmlns:xlink="http://www.w3.org/1999/xlink" version="1.1"><rect x="0" y="0" width="1024" height="100" fill="#F06"></rect><path d="M0 25L34.2 25.8C68.3 26.7 136.7 28.3 205 28.3C273.3 28.3 341.7 26.7 409.8 25.2C478 23.7 546 22.3 614.2 22C682.3 21.7 750.7 22.3 819 23.2C887.3 24 955.7 25 989.8 25.5L1024 26L1024 101L989.8 101C955.7 101 887.3 101 819 101C750.7 101 682.3 101 614.2 101C546 101 478 101 409.8 101C341.7 101 273.3 101 205 101C136.7 101 68.3 101 34.2 101L0 101Z" fill="#b50048"></path><path d="M0 47L34.2 46.7C68.3 46.3 136.7 45.7 205 45.3C273.3 45 341.7 45 409.8 46.2C478 47.3 546 49.7 614.2 49.7C682.3 49.7 750.7 47.3 819 46.5C887.3 45.7 955.7 46.3 989.8 46.7L1024 47L1024 101L989.8 101C955.7 101 887.3 101 819 101C750.7 101 682.3 101 614.2 101C546 101 478 101 409.8 101C341.7 101 273.3 101 205 101C136.7 101 68.3 101 34.2 101L0 101Z" fill="#4d2159"></path><path d="M0 72L34.2 71.8C68.3 71.7 136.7 71.3 205 71.2C273.3 71 341.7 71 409.8 71.5C478 72 546 73 614.2 73.8C682.3 74.7 750.7 75.3 819 75.2C887.3 75 955.7 74 989.8 73.5L1024 73L1024 101L989.8 101C955.7 101 887.3 101 819 101C750.7 101 682.3 101 614.2 101C546 101 478 101 409.8 101C341.7 101 273.3 101 205 101C136.7 101 68.3 101 34.2 101L0 101Z" fill="#001122"></path></svg>