<svg id="visual" viewBox="0 0 960 540" width="960" height="540" xmlns="http://www.w3.org/2000/svg" xmlns:xlink="http://www.w3.org/1999/xlink" version="1.1"><g stroke-width="1" stroke-linejoin="bevel"><path d="M462 263L283 280L479 366Z" fill="#007773" stroke="#007773"></path><path d="M283 280L284 423L479 366Z" fill="#147f6c" stroke="#147f6c"></path><path d="M462 263L341 174L283 280Z" fill="#0d2b5b" stroke="#0d2b5b"></path><path d="M284 423L350 540L479 366Z" fill="#006f77" stroke="#006f77"></path><path d="M182 167L168 257L283 280Z" fill="#147f6c" stroke="#147f6c"></path><path d="M283 280L128 376L284 423Z" fill="#023663" stroke="#023663"></path><path d="M284 423L164 540L350 540Z" fill="#00496f" stroke="#00496f"></path><path d="M350 540L452 540L479 366Z" fill="#006679" stroke="#006679"></path><path d="M462 263L477 112L341 174Z" fill="#006679" stroke="#006679"></path><path d="M618 158L477 112L462 263Z" fill="#005374" stroke="#005374"></path><path d="M168 257L128 376L283 280Z" fill="#006679" stroke="#006679"></path><path d="M341 174L182 167L283 280Z" fill="#147f6c" stroke="#147f6c"></path><path d="M168 257L0 265L128 376Z" fill="#005d78" stroke="#005d78"></path><path d="M306 0L182 167L341 174Z" fill="#005374" stroke="#005374"></path><path d="M679 260L462 263L479 366Z" fill="#00496f" stroke="#00496f"></path><path d="M679 260L618 158L462 263Z" fill="#147f6c" stroke="#147f6c"></path><path d="M128 376L164 540L284 423Z" fill="#00496f" stroke="#00496f"></path><path d="M670 434L679 260L479 366Z" fill="#004069" stroke="#004069"></path><path d="M612 540L670 434L479 366Z" fill="#005374" stroke="#005374"></path><path d="M452 540L612 540L479 366Z" fill="#006f77" stroke="#006f77"></path><path d="M476 0L306 0L477 112Z" fill="#005d78" stroke="#005d78"></path><path d="M477 112L306 0L341 174Z" fill="#023663" stroke="#023663"></path><path d="M630 0L476 0L477 112Z" fill="#006f77" stroke="#006f77"></path><path d="M0 105L0 265L182 167Z" fill="#162152" stroke="#162152"></path><path d="M182 167L0 265L168 257Z" fill="#006679" stroke="#006679"></path><path d="M128 376L0 426L164 540Z" fill="#0d2b5b" stroke="#0d2b5b"></path><path d="M306 0L182 0L182 167Z" fill="#0d2b5b" stroke="#0d2b5b"></path><path d="M0 265L0 426L128 376Z" fill="#004069" stroke="#004069"></path><path d="M763 540L764 419L670 434Z" fill="#007773" stroke="#007773"></path><path d="M670 434L775 298L679 260Z" fill="#162152" stroke="#162152"></path><path d="M679 260L775 136L618 158Z" fill="#00496f" stroke="#00496f"></path><path d="M618 158L630 0L477 112Z" fill="#007773" stroke="#007773"></path><path d="M764 419L775 298L670 434Z" fill="#005374" stroke="#005374"></path><path d="M775 136L630 0L618 158Z" fill="#005d78" stroke="#005d78"></path><path d="M0 426L0 540L164 540Z" fill="#162152" stroke="#162152"></path><path d="M612 540L763 540L670 434Z" fill="#023663" stroke="#023663"></path><path d="M764 419L960 407L775 298Z" fill="#00496f" stroke="#00496f"></path><path d="M182 0L0 105L182 167Z" fill="#0d2b5b" stroke="#0d2b5b"></path><path d="M775 298L775 136L679 260Z" fill="#005374" stroke="#005374"></path><path d="M182 0L0 0L0 105Z" fill="#005d78" stroke="#005d78"></path><path d="M960 0L779 0L775 136Z" fill="#004069" stroke="#004069"></path><path d="M775 136L779 0L630 0Z" fill="#162152" stroke="#162152"></path><path d="M960 540L960 407L764 419Z" fill="#023663" stroke="#023663"></path><path d="M775 298L960 244L775 136Z" fill="#005374" stroke="#005374"></path><path d="M960 407L960 244L775 298Z" fill="#004069" stroke="#004069"></path><path d="M960 244L960 147L775 136Z" fill="#005d78" stroke="#005d78"></path><path d="M763 540L960 540L764 419Z" fill="#023663" stroke="#023663"></path><path d="M960 147L960 0L775 136Z" fill="#005374" stroke="#005374"></path></g></svg>