<svg id="visual" viewBox="0 0 3000 540" width="3000" height="540" xmlns="http://www.w3.org/2000/svg" xmlns:xlink="http://www.w3.org/1999/xlink" version="1.1"><path d="M0 17L83.3 17C166.7 17 333.3 17 500 21.5C666.7 26 833.3 35 1000 35C1166.7 35 1333.3 26 1500 20.7C1666.7 15.3 1833.3 13.7 2000 18.2C2166.7 22.7 2333.3 33.3 2500 35.2C2666.7 37 2833.3 30 2916.7 26.5L3000 23L3000 0L2916.7 0C2833.3 0 2666.7 0 2500 0C2333.3 0 2166.7 0 2000 0C1833.3 0 1666.7 0 1500 0C1333.3 0 1166.7 0 1000 0C833.3 0 666.7 0 500 0C333.3 0 166.7 0 83.3 0L0 0Z" fill="#001122"></path><path d="M0 104L83.3 96.7C166.7 89.3 333.3 74.7 500 78.2C666.7 81.7 833.3 103.3 1000 102.5C1166.7 101.7 1333.3 78.3 1500 71.2C1666.7 64 1833.3 73 2000 75.7C2166.7 78.3 2333.3 74.7 2500 71C2666.7 67.3 2833.3 63.7 2916.7 61.8L3000 60L3000 21L2916.7 24.5C2833.3 28 2666.7 35 2500 33.2C2333.3 31.3 2166.7 20.7 2000 16.2C1833.3 11.7 1666.7 13.3 1500 18.7C1333.3 24 1166.7 33 1000 33C833.3 33 666.7 24 500 19.5C333.3 15 166.7 15 83.3 15L0 15Z" fill="#032033"></path><path d="M0 276L83.3 266.2C166.7 256.3 333.3 236.7 500 228.7C666.7 220.7 833.3 224.3 1000 224.3C1166.7 224.3 1333.3 220.7 1500 221.5C1666.7 222.3 1833.3 227.7 2000 213.3C2166.7 199 2333.3 165 2500 144.3C2666.7 123.7 2833.3 116.3 2916.7 112.7L3000 109L3000 58L2916.7 59.8C2833.3 61.7 2666.7 65.3 2500 69C2333.3 72.7 2166.7 76.3 2000 73.7C1833.3 71 1666.7 62 1500 69.2C1333.3 76.3 1166.7 99.7 1000 100.5C833.3 101.3 666.7 79.7 500 76.2C333.3 72.7 166.7 87.3 83.3 94.7L0 102Z" fill="#022f44"></path><path d="M0 303L83.3 297.7C166.7 292.3 333.3 281.7 500 281.7C666.7 281.7 833.3 292.3 1000 289.7C1166.7 287 1333.3 271 1500 265.7C1666.7 260.3 1833.3 265.7 2000 254.8C2166.7 244 2333.3 217 2500 203.5C2666.7 190 2833.3 190 2916.7 190L3000 190L3000 107L2916.7 110.7C2833.3 114.3 2666.7 121.7 2500 142.3C2333.3 163 2166.7 197 2000 211.3C1833.3 225.7 1666.7 220.3 1500 219.5C1333.3 218.7 1166.7 222.3 1000 222.3C833.3 222.3 666.7 218.7 500 226.7C333.3 234.7 166.7 254.3 83.3 264.2L0 274Z" fill="#004054"></path><path d="M0 314L83.3 310.5C166.7 307 333.3 300 500 301C666.7 302 833.3 311 1000 305.5C1166.7 300 1333.3 280 1500 277.2C1666.7 274.3 1833.3 288.7 2000 279.7C2166.7 270.7 2333.3 238.3 2500 222.2C2666.7 206 2833.3 206 2916.7 206L3000 206L3000 188L2916.7 188C2833.3 188 2666.7 188 2500 201.5C2333.3 215 2166.7 242 2000 252.8C1833.3 263.7 1666.7 258.3 1500 263.7C1333.3 269 1166.7 285 1000 287.7C833.3 290.3 666.7 279.7 500 279.7C333.3 279.7 166.7 290.3 83.3 295.7L0 301Z" fill="#005164"></path><path d="M0 384L83.3 379.5C166.7 375 333.3 366 500 366C666.7 366 833.3 375 1000 380.5C1166.7 386 1333.3 388 1500 391.7C1666.7 395.3 1833.3 400.7 2000 399.7C2166.7 398.7 2333.3 391.3 2500 388.7C2666.7 386 2833.3 388 2916.7 389L3000 390L3000 204L2916.7 204C2833.3 204 2666.7 204 2500 220.2C2333.3 236.3 2166.7 268.7 2000 277.7C1833.3 286.7 1666.7 272.3 1500 275.2C1333.3 278 1166.7 298 1000 303.5C833.3 309 666.7 300 500 299C333.3 298 166.7 305 83.3 308.5L0 312Z" fill="#006272"></path><path d="M0 390L83.3 387.3C166.7 384.7 333.3 379.3 500 382C666.7 384.7 833.3 395.3 1000 399.8C1166.7 404.3 1333.3 402.7 1500 407.2C1666.7 411.7 1833.3 422.3 2000 422.3C2166.7 422.3 2333.3 411.7 2500 409C2666.7 406.3 2833.3 411.7 2916.7 414.3L3000 417L3000 388L2916.7 387C2833.3 386 2666.7 384 2500 386.7C2333.3 389.3 2166.7 396.7 2000 397.7C1833.3 398.7 1666.7 393.3 1500 389.7C1333.3 386 1166.7 384 1000 378.5C833.3 373 666.7 364 500 364C333.3 364 166.7 373 83.3 377.5L0 382Z" fill="#00747f"></path><path d="M0 455L83.3 448.7C166.7 442.3 333.3 429.7 500 423.3C666.7 417 833.3 417 1000 425C1166.7 433 1333.3 449 1500 454.3C1666.7 459.7 1833.3 454.3 2000 447.2C2166.7 440 2333.3 431 2500 429.2C2666.7 427.3 2833.3 432.7 2916.7 435.3L3000 438L3000 415L2916.7 412.3C2833.3 409.7 2666.7 404.3 2500 407C2333.3 409.7 2166.7 420.3 2000 420.3C1833.3 420.3 1666.7 409.7 1500 405.2C1333.3 400.7 1166.7 402.3 1000 397.8C833.3 393.3 666.7 382.7 500 380C333.3 377.3 166.7 382.7 83.3 385.3L0 388Z" fill="#008689"></path><path d="M0 482L83.3 479.2C166.7 476.3 333.3 470.7 500 467.8C666.7 465 833.3 465 1000 468.7C1166.7 472.3 1333.3 479.7 1500 482.5C1666.7 485.3 1833.3 483.7 2000 478.3C2166.7 473 2333.3 464 2500 460.3C2666.7 456.7 2833.3 458.3 2916.7 459.2L3000 460L3000 436L2916.7 433.3C2833.3 430.7 2666.7 425.3 2500 427.2C2333.3 429 2166.7 438 2000 445.2C1833.3 452.3 1666.7 457.7 1500 452.3C1333.3 447 1166.7 431 1000 423C833.3 415 666.7 415 500 421.3C333.3 427.7 166.7 440.3 83.3 446.7L0 453Z" fill="#00988d"></path><path d="M0 509L83.3 503.5C166.7 498 333.3 487 500 486C666.7 485 833.3 494 1000 499.5C1166.7 505 1333.3 507 1500 508C1666.7 509 1833.3 509 2000 506.2C2166.7 503.3 2333.3 497.7 2500 494C2666.7 490.3 2833.3 488.7 2916.7 487.8L3000 487L3000 458L2916.7 457.2C2833.3 456.3 2666.7 454.7 2500 458.3C2333.3 462 2166.7 471 2000 476.3C1833.3 481.7 1666.7 483.3 1500 480.5C1333.3 477.7 1166.7 470.3 1000 466.7C833.3 463 666.7 463 500 465.8C333.3 468.7 166.7 474.3 83.3 477.2L0 480Z" fill="#00aa8c"></path><path d="M0 519L83.3 520.8C166.7 522.7 333.3 526.3 500 528.2C666.7 530 833.3 530 1000 530C1166.7 530 1333.3 530 1500 529.2C1666.7 528.3 1833.3 526.7 2000 524C2166.7 521.3 2333.3 517.7 2500 515.8C2666.7 514 2833.3 514 2916.7 514L3000 514L3000 485L2916.7 485.8C2833.3 486.7 2666.7 488.3 2500 492C2333.3 495.7 2166.7 501.3 2000 504.2C1833.3 507 1666.7 507 1500 506C1333.3 505 1166.7 503 1000 497.5C833.3 492 666.7 483 500 484C333.3 485 166.7 496 83.3 501.5L0 507Z" fill="#23bb86"></path><path d="M0 541L83.3 541C166.7 541 333.3 541 500 541C666.7 541 833.3 541 1000 541C1166.7 541 1333.3 541 1500 541C1666.7 541 1833.3 541 2000 541C2166.7 541 2333.3 541 2500 541C2666.7 541 2833.3 541 2916.7 541L3000 541L3000 512L2916.7 512C2833.3 512 2666.7 512 2500 513.8C2333.3 515.7 2166.7 519.3 2000 522C1833.3 524.7 1666.7 526.3 1500 527.2C1333.3 528 1166.7 528 1000 528C833.3 528 666.7 528 500 526.2C333.3 524.3 166.7 520.7 83.3 518.8L0 517Z" fill="#53cc7d"></path></svg>