<svg id="visual" viewBox="0 0 960 300" width="960" height="300" xmlns="http://www.w3.org/2000/svg" xmlns:xlink="http://www.w3.org/1999/xlink" version="1.1"><path d="M0 82L60 82L60 115L120 115L120 118L180 118L180 94L240 94L240 97L300 97L300 106L360 106L360 97L420 97L420 91L480 91L480 118L540 118L540 115L600 115L600 103L660 103L660 97L720 97L720 103L780 103L780 106L840 106L840 88L900 88L900 85L960 85L960 100L960 0L960 0L900 0L900 0L840 0L840 0L780 0L780 0L720 0L720 0L660 0L660 0L600 0L600 0L540 0L540 0L480 0L480 0L420 0L420 0L360 0L360 0L300 0L300 0L240 0L240 0L180 0L180 0L120 0L120 0L60 0L60 0L0 0Z" fill="#53cc7d"></path><path d="M0 121L60 121L60 157L120 157L120 157L180 157L180 142L240 142L240 148L300 148L300 163L360 163L360 145L420 145L420 142L480 142L480 163L540 163L540 172L600 172L600 160L660 160L660 136L720 136L720 148L780 148L780 163L840 163L840 142L900 142L900 136L960 136L960 151L960 98L960 83L900 83L900 86L840 86L840 104L780 104L780 101L720 101L720 95L660 95L660 101L600 101L600 113L540 113L540 116L480 116L480 89L420 89L420 95L360 95L360 104L300 104L300 95L240 95L240 92L180 92L180 116L120 116L120 113L60 113L60 80L0 80Z" fill="#8d7a1f"></path><path d="M0 226L60 226L60 241L120 241L120 247L180 247L180 235L240 235L240 232L300 232L300 232L360 232L360 235L420 235L420 232L480 232L480 250L540 250L540 244L600 244L600 247L660 247L660 235L720 235L720 238L780 238L780 235L840 235L840 244L900 244L900 238L960 238L960 247L960 149L960 134L900 134L900 140L840 140L840 161L780 161L780 146L720 146L720 134L660 134L660 158L600 158L600 170L540 170L540 161L480 161L480 140L420 140L420 143L360 143L360 161L300 161L300 146L240 146L240 140L180 140L180 155L120 155L120 155L60 155L60 119L0 119Z" fill="#772d23"></path><path d="M0 301L60 301L60 301L120 301L120 301L180 301L180 301L240 301L240 301L300 301L300 301L360 301L360 301L420 301L420 301L480 301L480 301L540 301L540 301L600 301L600 301L660 301L660 301L720 301L720 301L780 301L780 301L840 301L840 301L900 301L900 301L960 301L960 301L960 245L960 236L900 236L900 242L840 242L840 233L780 233L780 236L720 236L720 233L660 233L660 245L600 245L600 242L540 242L540 248L480 248L480 230L420 230L420 233L360 233L360 230L300 230L300 230L240 230L240 233L180 233L180 245L120 245L120 239L60 239L60 224L0 224Z" fill="#300124"></path></svg>