<svg id="visual" viewBox="0 0 960 540" width="960" height="540" xmlns="http://www.w3.org/2000/svg" xmlns:xlink="http://www.w3.org/1999/xlink" version="1.1"><path d="M0 82L32 91C64 100 128 118 192 118C256 118 320 100 384 90.2C448 80.3 512 78.7 576 85C640 91.3 704 105.7 768 113.7C832 121.7 896 123.3 928 124.2L960 125L960 0L928 0C896 0 832 0 768 0C704 0 640 0 576 0C512 0 448 0 384 0C320 0 256 0 192 0C128 0 64 0 32 0L0 0Z" fill="#66ffdd"></path><path d="M0 109L32 121.7C64 134.3 128 159.7 192 160.5C256 161.3 320 137.7 384 126.8C448 116 512 118 576 127C640 136 704 152 768 161.8C832 171.7 896 175.3 928 177.2L960 179L960 123L928 122.2C896 121.3 832 119.7 768 111.7C704 103.7 640 89.3 576 83C512 76.7 448 78.3 384 88.2C320 98 256 116 192 116C128 116 64 98 32 89L0 80Z" fill="#2fe5db"></path><path d="M0 168L32 178.8C64 189.7 128 211.3 192 213.2C256 215 320 197 384 186.2C448 175.3 512 171.7 576 181.7C640 191.7 704 215.3 768 228C832 240.7 896 242.3 928 243.2L960 244L960 177L928 175.2C896 173.3 832 169.7 768 159.8C704 150 640 134 576 125C512 116 448 114 384 124.8C320 135.7 256 159.3 192 158.5C128 157.7 64 132.3 32 119.7L0 107Z" fill="#00cbd6"></path><path d="M0 201L32 210.8C64 220.7 128 240.3 192 242.2C256 244 320 228 384 217.2C448 206.3 512 200.7 576 207.8C640 215 704 235 768 247.7C832 260.3 896 265.7 928 268.3L960 271L960 242L928 241.2C896 240.3 832 238.7 768 226C704 213.3 640 189.7 576 179.7C512 169.7 448 173.3 384 184.2C320 195 256 213 192 211.2C128 209.3 64 187.7 32 176.8L0 166Z" fill="#00b1cb"></path><path d="M0 244L32 256.7C64 269.3 128 294.7 192 299.2C256 303.7 320 287.3 384 274.7C448 262 512 253 576 256.7C640 260.3 704 276.7 768 290.2C832 303.7 896 314.3 928 319.7L960 325L960 269L928 266.3C896 263.7 832 258.3 768 245.7C704 233 640 213 576 205.8C512 198.7 448 204.3 384 215.2C320 226 256 242 192 240.2C128 238.3 64 218.7 32 208.8L0 199Z" fill="#0096bc"></path><path d="M0 276L32 288.7C64 301.3 128 326.7 192 331.2C256 335.7 320 319.3 384 305C448 290.7 512 278.3 576 282.8C640 287.3 704 308.7 768 323.8C832 339 896 348 928 352.5L960 357L960 323L928 317.7C896 312.3 832 301.7 768 288.2C704 274.7 640 258.3 576 254.7C512 251 448 260 384 272.7C320 285.3 256 301.7 192 297.2C128 292.7 64 267.3 32 254.7L0 242Z" fill="#007ca8"></path><path d="M0 428L32 431.5C64 435 128 442 192 442.8C256 443.7 320 438.3 384 433C448 427.7 512 422.3 576 421.5C640 420.7 704 424.3 768 430.7C832 437 896 446 928 450.5L960 455L960 355L928 350.5C896 346 832 337 768 321.8C704 306.7 640 285.3 576 280.8C512 276.3 448 288.7 384 303C320 317.3 256 333.7 192 329.2C128 324.7 64 299.3 32 286.7L0 274Z" fill="#006392"></path><path d="M0 455L32 457.7C64 460.3 128 465.7 192 464.7C256 463.7 320 456.3 384 451.8C448 447.3 512 445.7 576 446.7C640 447.7 704 451.3 768 455.8C832 460.3 896 465.7 928 468.3L960 471L960 453L928 448.5C896 444 832 435 768 428.7C704 422.3 640 418.7 576 419.5C512 420.3 448 425.7 384 431C320 436.3 256 441.7 192 440.8C128 440 64 433 32 429.5L0 426Z" fill="#004a7b"></path><path d="M0 476L32 478.7C64 481.3 128 486.7 192 485.8C256 485 320 478 384 475.3C448 472.7 512 474.3 576 477.8C640 481.3 704 486.7 768 490.3C832 494 896 496 928 497L960 498L960 469L928 466.3C896 463.7 832 458.3 768 453.8C704 449.3 640 445.7 576 444.7C512 443.7 448 445.3 384 449.8C320 454.3 256 461.7 192 462.7C128 463.7 64 458.3 32 455.7L0 453Z" fill="#003363"></path><path d="M0 519L32 520C64 521 128 523 192 522.2C256 521.3 320 517.7 384 516.7C448 515.7 512 517.3 576 518.2C640 519 704 519 768 520C832 521 896 523 928 524L960 525L960 496L928 495C896 494 832 492 768 488.3C704 484.7 640 479.3 576 475.8C512 472.3 448 470.7 384 473.3C320 476 256 483 192 483.8C128 484.7 64 479.3 32 476.7L0 474Z" fill="#001d4b"></path><path d="M0 541L32 541C64 541 128 541 192 541C256 541 320 541 384 541C448 541 512 541 576 541C640 541 704 541 768 541C832 541 896 541 928 541L960 541L960 523L928 522C896 521 832 519 768 518C704 517 640 517 576 516.2C512 515.3 448 513.7 384 514.7C320 515.7 256 519.3 192 520.2C128 521 64 519 32 518L0 517Z" fill="#000033"></path></svg>