<svg id="visual" viewBox="0 0 960 300" width="960" height="300" xmlns="http://www.w3.org/2000/svg" xmlns:xlink="http://www.w3.org/1999/xlink" version="1.1"><path d="M0 100L60 100L60 73L120 73L120 73L180 73L180 94L240 94L240 82L300 82L300 73L360 73L360 94L420 94L420 82L480 82L480 82L540 82L540 97L600 97L600 103L660 103L660 76L720 76L720 109L780 109L780 85L840 85L840 76L900 76L900 85L960 85L960 97L960 0L960 0L900 0L900 0L840 0L840 0L780 0L780 0L720 0L720 0L660 0L660 0L600 0L600 0L540 0L540 0L480 0L480 0L420 0L420 0L360 0L360 0L300 0L300 0L240 0L240 0L180 0L180 0L120 0L120 0L60 0L60 0L0 0Z" fill="#000120"></path><path d="M0 145L60 145L60 130L120 130L120 127L180 127L180 139L240 139L240 136L300 136L300 118L360 118L360 151L420 151L420 124L480 124L480 136L540 136L540 145L600 145L600 148L660 148L660 127L720 127L720 154L780 154L780 139L840 139L840 127L900 127L900 142L960 142L960 136L960 95L960 83L900 83L900 74L840 74L840 83L780 83L780 107L720 107L720 74L660 74L660 101L600 101L600 95L540 95L540 80L480 80L480 80L420 80L420 92L360 92L360 71L300 71L300 80L240 80L240 92L180 92L180 71L120 71L120 71L60 71L60 98L0 98Z" fill="#224064"></path><path d="M0 214L60 214L60 193L120 193L120 196L180 196L180 208L240 208L240 199L300 199L300 187L360 187L360 205L420 205L420 184L480 184L480 184L540 184L540 205L600 205L600 205L660 205L660 187L720 187L720 223L780 223L780 199L840 199L840 193L900 193L900 193L960 193L960 208L960 134L960 140L900 140L900 125L840 125L840 137L780 137L780 152L720 152L720 125L660 125L660 146L600 146L600 143L540 143L540 134L480 134L480 122L420 122L420 149L360 149L360 116L300 116L300 134L240 134L240 137L180 137L180 125L120 125L120 128L60 128L60 143L0 143Z" fill="#3f82af"></path><path d="M0 301L60 301L60 301L120 301L120 301L180 301L180 301L240 301L240 301L300 301L300 301L360 301L360 301L420 301L420 301L480 301L480 301L540 301L540 301L600 301L600 301L660 301L660 301L720 301L720 301L780 301L780 301L840 301L840 301L900 301L900 301L960 301L960 301L960 206L960 191L900 191L900 191L840 191L840 197L780 197L780 221L720 221L720 185L660 185L660 203L600 203L600 203L540 203L540 182L480 182L480 182L420 182L420 203L360 203L360 185L300 185L300 197L240 197L240 206L180 206L180 194L120 194L120 191L60 191L60 212L0 212Z" fill="#5bcdfa"></path></svg>