<svg id="visual" viewBox="0 0 960 100" width="960" height="100" xmlns="http://www.w3.org/2000/svg" xmlns:xlink="http://www.w3.org/1999/xlink" version="1.1"><rect x="0" y="0" width="960" height="100" fill="#003"></rect><path d="M0 68L26.7 64C53.3 60 106.7 52 160 48.2C213.3 44.3 266.7 44.7 320 49.8C373.3 55 426.7 65 480 71.5C533.3 78 586.7 81 640 77.7C693.3 74.3 746.7 64.7 800 60.5C853.3 56.3 906.7 57.7 933.3 58.3L960 59L960 101L933.3 101C906.7 101 853.3 101 800 101C746.7 101 693.3 101 640 101C586.7 101 533.3 101 480 101C426.7 101 373.3 101 320 101C266.7 101 213.3 101 160 101C106.7 101 53.3 101 26.7 101L0 101Z" fill="#f06" stroke-linecap="round" stroke-linejoin="miter"></path></svg>